<svg xmlns="http://www.w3.org/2000/svg" version="1.1" xmlns:xlink="http://www.w3.org/1999/xlink" xmlns:svgjs="http://svgjs.dev/svgjs" width="1500" height="1500" viewBox="0 0 1500 1500"><rect width="1500" height="1500" fill="#ffffff"></rect><g transform="matrix(0.6666666666666666,0,0,0.6666666666666666,249.39393939393938,673.8128065217128)"><svg viewBox="0 0 396 60" data-background-color="#ffffff" preserveAspectRatio="xMidYMid meet" height="227" width="1500" xmlns="http://www.w3.org/2000/svg" xmlns:xlink="http://www.w3.org/1999/xlink"><g id="tight-bounds" transform="matrix(1,0,0,1,0.2400000000000091,0.20637626892445837)"><svg viewBox="0 0 395.52 59.5872474621511" height="59.5872474621511" width="395.52"><g><svg viewBox="0 0 501.9014597796353 75.61419520000001" height="59.5872474621511" width="395.52"><g><rect width="4.934128912435201" height="54.987168000000004" x="88.53076303360001" y="10.313513600000004" fill="#000000" opacity="1" stroke-width="0" stroke="transparent" fill-opacity="1" class="rect-qz-0" data-fill-palette-color="primary" rx="1%" id="qz-0" data-palette-color="#77d4fc"></rect></g><g transform="matrix(1,0,0,1,106.38145977963521,10.450297600000003)"><svg viewBox="0 0 395.52000000000004 54.71360000000001" height="54.71360000000001" width="395.52000000000004"><g id="textblocktransform"><svg viewBox="0 0 395.52000000000004 54.71360000000001" height="54.71360000000001" width="395.52000000000004" id="textblock"><g><svg viewBox="0 0 395.52000000000004 54.71360000000001" height="54.71360000000001" width="395.52000000000004"><g transform="matrix(1,0,0,1,0,0)"><svg width="395.52000000000004" viewBox="0 -29.5 326.98 45.65" height="54.71360000000001" data-palette-color="#77d4fc"><g class="wordmark-text-0" data-fill-palette-color="primary" id="text-0"><path d="M1.5 0L0 0 0-29.5 1.5-29.5 1.5 0ZM4.5 0L3 0 3-29.5 4.5-29.5 4.5 0ZM10.5 0L6 0 6-29.5 10.5-29.5 10.5 0ZM18 0L16.5 0 16.5-29.5 18-29.5 18 0ZM24 0L19.5 0 19.5-29.5 24-29.5 24 0ZM9.1 15.95L9.1 4.35 11.8 4.35Q13.25 4.35 14.05 4.75L14.05 4.75Q14.9 5.15 15.5 5.95L15.5 5.95Q16.65 7.45 16.65 10.2L16.65 10.2Q16.55 13.05 15.35 14.5L15.35 14.5Q14.15 16 11.6 15.95L11.6 15.95 9.1 15.95ZM10.35 14.95L11.5 14.95Q15.35 14.95 15.35 10.3L15.35 10.3Q15.35 7.95 14.5 6.7L14.5 6.7Q13.6 5.45 11.7 5.45L11.7 5.45 10.35 5.45 10.35 14.95ZM30 0L25.5 0 25.5-29.5 30-29.5 30 0ZM33 0L31.5 0 31.5-29.5 33-29.5 33 0ZM36 0L34.5 0 34.5-29.5 36-29.5 36 0ZM43.5 0L42 0 42-29.5 43.5-29.5 43.5 0ZM49.5 0L45 0 45-29.5 49.5-29.5 49.5 0ZM41.25 15.95L40.1 12.55 36.35 12.55 35.2 15.95 33.9 15.95 38.15 4.15 38.3 4.15 42.6 15.95 41.25 15.95ZM36.7 11.55L39.75 11.55 38.25 7.15 36.7 11.55ZM55.5 0L51 0 51-29.5 55.5-29.5 55.5 0ZM63 0L61.5 0 61.5-29.5 63-29.5 63 0ZM69 0L64.5 0 64.5-29.5 69-29.5 69 0ZM72 0L70.5 0 70.5-29.5 72-29.5 72 0ZM75 0L73.5 0 73.5-29.5 75-29.5 75 0ZM63.2 15.95L63.2 11.4 59.6 4.35 61.1 4.35 63.95 10 66.5 4.35 67.9 4.35 64.59 11.4 64.59 15.95 63.2 15.95ZM77.99 0L76.49 0 76.49-29.5 77.99-29.5 77.99 0ZM88.49 0L83.99 0 83.99-29.5 88.49-29.5 88.49 0ZM94.49 0L89.99 0 89.99-29.5 94.49-29.5 94.49 0ZM97.49 0L95.99 0 95.99-29.5 97.49-29.5 97.49 0ZM100.49 0L98.99 0 98.99-29.5 100.49-29.5 100.49 0ZM85.54 15.95L85.54 15.05 91.34 5.55 85.74 5.55 85.74 4.35 92.89 4.35 92.89 5.3 87.14 14.8 92.39 14.8Q92.69 14.8 92.84 14.75L92.84 14.75Q92.94 14.7 93.09 14.6L93.09 14.6 93.19 14.6 93.19 15.95 85.54 15.95Z" fill="#000000" data-fill-palette-color="primary"></path><path d="M101.99 0L100.49 0 100.49-29.5 101.99-29.5 101.99 0ZM112.49 0L107.99 0 107.99-29.5 112.49-29.5 112.49 0ZM115.49 0L113.99 0 113.99-29.5 115.49-29.5 115.49 0ZM121.49 0L116.99 0 116.99-29.5 121.49-29.5 121.49 0ZM124.49 0L122.99 0 122.99-29.5 124.49-29.5 124.49 0ZM130.49 0L125.99 0 125.99-29.5 130.49-29.5 130.49 0ZM133.49 0L131.99 0 131.99-29.5 133.49-29.5 133.49 0ZM139.49 0L134.99 0 134.99-29.5 139.49-29.5 139.49 0ZM142.49 0L140.99 0 140.99-29.5 142.49-29.5 142.49 0ZM149.99 0L148.49 0 148.49-29.5 149.99-29.5 149.99 0ZM138.74 16.15L138.74 16.15Q136.74 16.15 135.69 14.6L135.69 14.6Q134.59 13.05 134.59 10.2L134.59 10.2Q134.59 7.45 135.69 5.85L135.69 5.85Q136.79 4.3 138.74 4.3L138.74 4.3Q140.69 4.3 141.79 5.85L141.79 5.85Q142.89 7.45 142.89 10.2L142.89 10.2Q142.89 13.05 141.79 14.6L141.79 14.6Q140.74 16.15 138.74 16.15ZM138.74 15L138.74 15Q140.09 15 140.79 13.8L140.79 13.8Q141.54 12.55 141.54 10.2L141.54 10.2Q141.54 8 140.79 6.7L140.79 6.7Q140.04 5.45 138.74 5.45L138.74 5.45Q137.44 5.45 136.69 6.7L136.69 6.7Q135.94 8 135.94 10.2L135.94 10.2Q135.94 12.55 136.64 13.8L136.64 13.8Q137.39 15 138.74 15ZM152.99 0L151.49 0 151.49-29.5 152.99-29.5 152.99 0ZM155.99 0L154.49 0 154.49-29.5 155.99-29.5 155.99 0ZM161.99 0L157.49 0 157.49-29.5 161.99-29.5 161.99 0ZM164.99 0L163.49 0 163.49-29.5 164.99-29.5 164.99 0ZM175.49 0L170.99 0 170.99-29.5 175.49-29.5 175.49 0ZM160.54 15.95L160.54 4.35 161.79 4.35 166.64 12.95 166.64 4.35 168.08 4.35 168.08 4.5Q167.94 4.6 167.94 4.75L167.94 4.75Q167.89 4.85 167.89 5.2L167.89 5.2 167.89 15.95 166.89 15.95 161.74 6.85 161.74 15.95 160.54 15.95Z" fill="#000000" data-fill-palette-color="secondary"></path></g></svg></g></svg></g></svg></g></svg></g><g><svg viewBox="0 0 75.61419520000001 75.61419520000001" height="75.61419520000001" width="75.61419520000001"><g><svg xmlns="http://www.w3.org/2000/svg" xmlns:xlink="http://www.w3.org/1999/xlink" version="1.1" x="0" y="0" viewBox="5 5 90 90" style="enable-background:new 0 0 100 100;" xml:space="preserve" height="75.61419520000001" width="75.61419520000001" class="icon-icon-0" data-fill-palette-color="accent" id="icon-0"></svg></g></svg></g></svg></g><defs></defs><mask id="8b8a6b96-4256-4400-a86f-01593da4cd59"><g id="SvgjsG1037"><svg viewBox="0 0 395.52 59.5872474621511" height="59.5872474621511" width="395.52"><g><svg viewBox="0 0 501.9014597796353 75.61419520000001" height="59.5872474621511" width="395.52"><g></g><g transform="matrix(1,0,0,1,106.38145977963521,10.450297600000003)"><svg viewBox="0 0 395.52000000000004 54.71360000000001" height="54.71360000000001" width="395.52000000000004"><g id="SvgjsG1035"><svg viewBox="0 0 395.52000000000004 54.71360000000001" height="54.71360000000001" width="395.52000000000004" id="SvgjsSvg1034"><g><svg viewBox="0 0 395.52000000000004 54.71360000000001" height="54.71360000000001" width="395.52000000000004"><g transform="matrix(1,0,0,1,0,0)"><svg width="395.52000000000004" viewBox="0 -29.5 326.98 45.65" height="54.71360000000001" data-palette-color="#77d4fc"><g class="wordmark-text-0" data-fill-palette-color="primary" id="SvgjsG1033"><path d="M176.99 0L175.49 0 175.49-29.5 176.99-29.5 176.99 0ZM187.49 0L182.99 0 182.99-29.5 187.49-29.5 187.49 0ZM190.49 0L188.99 0 188.99-29.5 190.49-29.5 190.49 0ZM196.49 0L191.99 0 191.99-29.5 196.49-29.5 196.49 0ZM199.49 0L197.99 0 197.99-29.5 199.49-29.5 199.49 0ZM205.49 0L200.99 0 200.99-29.5 205.49-29.5 205.49 0ZM208.49 0L206.99 0 206.99-29.5 208.49-29.5 208.49 0ZM214.49 0L209.99 0 209.99-29.5 214.49-29.5 214.49 0ZM221.99 0L220.49 0 220.49-29.5 221.99-29.5 221.99 0ZM224.99 0L223.49 0 223.49-29.5 224.99-29.5 224.99 0ZM210.19 15.95L210.19 4.35 217.29 4.35 217.29 5.5 211.39 5.5 211.39 9.3 216.29 9.3 216.29 10.5 211.39 10.5 211.39 14.8 217.24 14.8 217.24 15.95 210.19 15.95ZM230.99 0L226.49 0 226.49-29.5 230.99-29.5 230.99 0ZM233.99 0L232.49 0 232.49-29.5 233.99-29.5 233.99 0ZM236.99 0L235.49 0 235.49-29.5 236.99-29.5 236.99 0ZM244.49 0L242.99 0 242.99-29.5 244.49-29.5 244.49 0ZM250.49 0L245.99 0 245.99-29.5 250.49-29.5 250.49 0ZM242.24 15.95L241.08 12.55 237.34 12.55 236.19 15.95 234.89 15.95 239.14 4.15 239.29 4.15 243.58 15.95 242.24 15.95ZM237.69 11.55L240.74 11.55 239.24 7.15 237.69 11.55ZM256.48 0L251.98 0 251.98-29.5 256.48-29.5 256.48 0ZM259.48 0L257.98 0 257.98-29.5 259.48-29.5 259.48 0ZM262.48 0L260.98 0 260.98-29.5 262.48-29.5 262.48 0ZM268.48 0L263.98 0 263.98-29.5 268.48-29.5 268.48 0ZM275.98 0L274.48 0 274.48-29.5 275.98-29.5 275.98 0ZM261.13 15.95L261.13 4.35 264.53 4.35Q266.53 4.35 267.43 5.25L267.43 5.25Q268.38 6.1 268.38 7.7L268.38 7.7Q268.38 8.7 267.73 9.6L267.73 9.6Q267.08 10.5 266.03 10.8L266.03 10.8 268.73 15.95 267.28 15.95 264.68 10.85 262.43 10.85 262.43 15.95 261.13 15.95ZM262.43 9.7L264.68 9.7Q265.88 9.7 266.48 9.15L266.48 9.15Q267.03 8.65 267.03 7.7L267.03 7.7Q267.03 6.75 266.48 6.15L266.48 6.15Q265.88 5.6 264.68 5.6L264.68 5.6 262.43 5.6 262.43 9.7ZM278.98 0L277.48 0 277.48-29.5 278.98-29.5 278.98 0ZM281.98 0L280.48 0 280.48-29.5 281.98-29.5 281.98 0ZM287.98 0L283.48 0 283.48-29.5 287.98-29.5 287.98 0ZM293.98 0L289.48 0 289.48-29.5 293.98-29.5 293.98 0ZM301.48 0L299.98 0 299.98-29.5 301.48-29.5 301.48 0ZM289.43 15.95L289.43 5.5 286.18 5.5 286.18 4.35 294.18 4.35 294.18 5.5 290.78 5.5 290.78 15.95 289.43 15.95ZM307.48 0L302.98 0 302.98-29.5 307.48-29.5 307.48 0ZM310.48 0L308.98 0 308.98-29.5 310.48-29.5 310.48 0ZM313.48 0L311.98 0 311.98-29.5 313.48-29.5 313.48 0ZM323.98 0L319.48 0 319.48-29.5 323.98-29.5 323.98 0ZM326.98 0L325.48 0 325.48-29.5 326.98-29.5 326.98 0ZM312.03 15.95L312.03 4.35 313.53 4.35 313.53 4.5Q313.43 4.6 313.38 4.75L313.38 4.75Q313.38 4.85 313.38 5.2L313.38 5.2 313.38 9.3 317.88 9.3 317.88 4.35 319.43 4.35 319.43 4.5Q319.33 4.6 319.28 4.75L319.28 4.75Q319.28 4.85 319.28 5.2L319.28 5.2 319.28 15.95 317.88 15.95 317.88 10.45 313.38 10.45 313.38 15.95 312.03 15.95Z" fill="white"></path></g></svg></g></svg></g></svg></g></svg></g><g><svg viewBox="0 0 75.61419520000001 75.61419520000001" height="75.61419520000001" width="75.61419520000001"><g><svg xmlns="http://www.w3.org/2000/svg" xmlns:xlink="http://www.w3.org/1999/xlink" version="1.1" x="0" y="0" viewBox="5 5 90 90" style="enable-background:new 0 0 100 100;" xml:space="preserve" height="75.61419520000001" width="75.61419520000001" class="icon-icon-0" data-fill-palette-color="accent" id="SvgjsSvg1032"><path d="M83.814 53.502C90.756 42.507 95 30.494 95 19c0-7.589-6.411-14-14-14C69.995 5 58.054 8.866 46.466 16.181c-0.002 0.001-0.002 0.003-0.004 0.004-15.929 1.654-28.623 14.35-30.277 30.278-0.001 0.001-0.003 0.002-0.004 0.004C8.866 58.054 5 69.996 5 81c0 7.589 6.411 14 14 14 11.493 0 23.507-4.244 34.501-11.185C69.523 82.177 82.176 69.525 83.814 53.502zM57.561 81.098c9.008-6.379 17.157-14.528 23.537-23.536C78.293 69.188 69.187 78.294 57.561 81.098zM50 18c11.457 0 22.037 6.15 27.745 16.07C71.703 49.135 54.5 67.209 38.94 75.475l1.767-1.768c0.391-0.391 0.391-1.023 0-1.414s-1.023-0.391-1.414 0l-5 5c-0.126 0.126-0.196 0.28-0.241 0.441-0.71-0.41-1.397-0.846-2.068-1.304l5.724-5.724c0.391-0.391 0.391-1.023 0-1.414s-1.023-0.391-1.414 0l-5.945 5.945c-0.601-0.469-1.181-0.957-1.743-1.463 0.033-0.025 0.072-0.038 0.103-0.068l6-6c0.391-0.391 0.391-1.023 0-1.414s-1.023-0.391-1.414 0l-6 6c-0.041 0.041-0.061 0.094-0.093 0.14-0.536-0.546-1.05-1.11-1.545-1.691 0.017-0.015 0.036-0.019 0.052-0.034l7-7c0.391-0.391 0.391-1.023 0-1.414s-1.023-0.391-1.414 0l-6.887 6.887c-0.455-0.609-0.888-1.234-1.299-1.873l7.6-7.6c0.391-0.391 0.391-1.023 0-1.414s-1.023-0.391-1.414 0l-7.245 7.245c-0.382-0.688-0.737-1.39-1.068-2.104l7.728-7.728c0.391-0.391 0.391-1.023 0-1.414s-1.023-0.391-1.414 0l-7.154 7.154c-0.315-0.822-0.602-1.655-0.85-2.504 0.152-0.046 0.298-0.116 0.418-0.236l8-8c0.391-0.391 0.391-1.023 0-1.414s-1.023-0.391-1.414 0l-7.542 7.542c-0.208-0.95-0.375-1.911-0.496-2.885 0.165-0.044 0.323-0.114 0.452-0.243l8-8c0.391-0.391 0.391-1.023 0-1.414s-1.023-0.391-1.414 0l-7.241 7.241C18.027 51.023 18 50.514 18 50c0-0.546 0.014-1.088 0.041-1.627l7.666-7.666c0.391-0.391 0.391-1.023 0-1.414s-1.023-0.391-1.414 0l-5.936 5.936c0.22-1.465 0.545-2.896 0.957-4.29 0.143-0.047 0.279-0.118 0.393-0.231l8-8c0.391-0.391 0.391-1.023 0-1.414s-1.023-0.391-1.414 0l-5.37 5.37C25.99 25.66 37.114 18 50 18zM78.623 31.649c-2.684-4.178-6.216-7.647-10.289-10.256C71.113 20.485 73.694 20 75.997 20c0.002 0 0.004 0 0.004 0 1.2 0 2.209 0.374 2.917 1.082C79.626 21.79 80 22.799 80 24 80 26.37 79.502 28.95 78.623 31.649zM31.649 78.622C28.95 79.502 26.37 80 24 80c-2.43 0-4-1.57-4-4 0-2.305 0.485-4.887 1.393-7.666C24.002 72.406 27.471 75.939 31.649 78.622zM7 81c0-9.657 3.115-20.096 9.021-30.378 0.102 5.55 1.559 10.887 4.131 15.613-0.139 0.112-0.259 0.247-0.323 0.427C18.615 70.047 18 73.189 18 76c0 3.533 2.468 6 6 6 3.148 0 6.611-0.785 10.221-2.161 0.088-0.021 0.173-0.051 0.253-0.094 17.55-6.813 38.585-27.878 45.322-45.41 0.013-0.032 0.027-0.062 0.036-0.095C81.212 30.624 82 27.154 82 24c0-1.743-0.577-3.241-1.668-4.332S77.743 18 76.002 18c-0.002 0-0.003 0-0.005 0-2.809 0-5.949 0.615-9.335 1.829-0.18 0.064-0.314 0.185-0.426 0.323-4.728-2.572-10.063-4.029-15.614-4.131C60.904 10.115 71.343 7 81 7c6.393 0 12 5.607 12 12 0 11.036-4.02 22.563-10.611 33.146-0.277 0.156-0.488 0.423-0.52 0.764-0.003 0.027-0.007 0.055-0.01 0.082C74.594 64.367 64.367 74.594 52.992 81.86c-0.027 0.003-0.055 0.007-0.082 0.009-0.344 0.031-0.615 0.242-0.771 0.523C41.559 88.982 30.033 93 19 93 12.607 93 7 87.393 7 81z" fill="white"></path><path d="M13 21c4.411 0 8-3.589 8-8s-3.589-8-8-8-8 3.589-8 8S8.589 21 13 21zM13 7c3.309 0 6 2.691 6 6 0 2.736-1.842 5.044-4.35 5.764l1.057-1.057c0.391-0.391 0.391-1.023 0-1.414s-1.023-0.391-1.414 0l-2 2c-0.173 0.172-0.256 0.394-0.275 0.619-0.935-0.155-1.795-0.524-2.531-1.059 0.076-0.043 0.155-0.082 0.221-0.146l2-2c0.391-0.391 0.391-1.023 0-1.414s-1.023-0.391-1.414 0l-2 2c-0.065 0.065-0.104 0.144-0.146 0.221-0.534-0.736-0.904-1.597-1.059-2.531 0.225-0.02 0.446-0.104 0.619-0.276l2-2c0.391-0.391 0.391-1.023 0-1.414s-1.023-0.391-1.414 0L7.236 11.35C7.955 8.842 10.265 7 13 7z" fill="white"></path><path d="M78 81.5c-2.481 0-4.5 2.019-4.5 4.5s2.019 4.5 4.5 4.5 4.5-2.019 4.5-4.5S80.481 81.5 78 81.5zM78 88.5c-1.379 0-2.5-1.121-2.5-2.5s1.121-2.5 2.5-2.5 2.5 1.121 2.5 2.5S79.379 88.5 78 88.5z" fill="white"></path><path d="M83.124 40.69c0.117 0.045 0.239 0.067 0.36 0.067 0.261 0 0.516-0.102 0.707-0.293l4.516-4.516c0.28-0.28 0.368-0.698 0.226-1.067C88.257 33.131 86.611 32 84.742 32c-2.481 0-4.5 2.019-4.5 4.5C80.242 38.369 81.373 40.014 83.124 40.69zM84.742 34c0.825 0 1.572 0.399 2.032 1.054l-3.479 3.479c-0.654-0.46-1.054-1.207-1.054-2.032C82.242 35.122 83.363 34 84.742 34z" fill="white"></path></svg></g></svg></g></svg></g><defs><mask></mask></defs></svg></g></mask><linearGradient x1="0" x2="1" y1="0.578" y2="0.595" id="00b7f18c-a19d-4e59-bc26-bab5fac020b0"><stop stop-color="#dede50" offset="0"></stop><stop stop-color="#559c49" offset="1"></stop></linearGradient><rect width="395.52" height="59.5872474621511" fill="#000000" mask="url(#8b8a6b96-4256-4400-a86f-01593da4cd59)" data-fill-palette-color="accent"></rect></svg><rect width="395.52" height="59.5872474621511" fill="none" stroke="none" visibility="hidden"></rect></g></svg></g></svg>